<svg width="213" height="41" viewBox="0 0 213 41" fill="none" xmlns="http://www.w3.org/2000/svg">
<g clip-path="url(#clip0)">
<path d="M39.5652 28.9565V4.17391C39.5652 3.59736 39.3362 3.04441 38.9285 2.63672C38.5208 2.22904 37.9679 2 37.3913 2H6.08696C5.5104 2 4.95746 2.22904 4.54977 2.63672C4.14208 3.04441 3.91304 3.59736 3.91304 4.17391V28.9565H0V30.2609C0 30.7221 0.183229 31.1645 0.50938 31.4906C0.83553 31.8168 1.27788 32 1.73913 32H41.7391C42.2004 32 42.6427 31.8168 42.9689 31.4906C43.295 31.1645 43.4783 30.7221 43.4783 30.2609V28.9565H39.5652Z" fill="#23475F"/>
<path d="M6.08783 4.17389H37.3922V26.3478H6.08783V4.17389Z" fill="#3498DB"/>
<path d="M24.8696 10H18.3478V11.7391H24.8696V10ZM14 13.4783V14.3478H29.2174V13.4783H14ZM14 16.087H29.2174V15.2174H14V16.087ZM14 17.8261H29.2174V16.9565H14V17.8261ZM16.1739 20.0004H27.0435V19.1304H16.1739V20.0004Z" fill="#9ACCED"/>
<path d="M3.91391 28.087H39.5661V28.9565H3.91391V28.087Z" fill="#1C394C"/>
<path d="M32.3922 29.8261C32.3065 29.8261 32.2217 29.843 32.1425 29.8759C32.0634 29.9087 31.9915 29.9567 31.9309 30.0173C31.8704 30.0779 31.8223 30.1499 31.7896 30.229C31.7568 30.3082 31.74 30.393 31.74 30.4787C31.74 30.5644 31.7569 30.6492 31.7897 30.7284C31.8226 30.8075 31.8706 30.8794 31.9312 30.94C31.9918 31.0005 32.0638 31.0486 32.1429 31.0813C32.2221 31.1141 32.3069 31.1309 32.3926 31.1309C32.5656 31.1308 32.7316 31.062 32.8539 30.9397C32.9762 30.8173 33.0448 30.6513 33.0448 30.4783C33.0447 30.3053 32.9759 30.1393 32.8536 30.017C32.7312 29.8947 32.5652 29.8261 32.3922 29.8261ZM34.5661 29.8261C34.4804 29.8261 34.3956 29.843 34.3164 29.8759C34.2373 29.9087 34.1654 29.9567 34.1048 30.0173C34.0443 30.0779 33.9963 30.1499 33.9635 30.229C33.9307 30.3082 33.9139 30.393 33.9139 30.4787C33.9139 30.5644 33.9309 30.6492 33.9637 30.7284C33.9965 30.8075 34.0446 30.8794 34.1052 30.94C34.1658 31.0005 34.2377 31.0486 34.3168 31.0813C34.396 31.1141 34.4809 31.1309 34.5665 31.1309C34.7396 31.1308 34.9055 31.062 35.0278 30.9397C35.1501 30.8173 35.2188 30.6513 35.2187 30.4783C35.2186 30.3053 35.1499 30.1393 35.0275 30.017C34.9051 29.8947 34.7391 29.8261 34.5661 29.8261ZM36.74 29.8261C36.6543 29.8261 36.5695 29.843 36.4904 29.8759C36.4112 29.9087 36.3393 29.9567 36.2788 30.0173C36.2182 30.0779 36.1702 30.1499 36.1374 30.229C36.1047 30.3082 36.0878 30.393 36.0878 30.4787C36.0879 30.5644 36.1048 30.6492 36.1376 30.7284C36.1704 30.8075 36.2185 30.8794 36.2791 30.94C36.3397 31.0005 36.4116 31.0486 36.4908 31.0813C36.5699 31.1141 36.6548 31.1309 36.7404 31.1309C36.9135 31.1308 37.0794 31.062 37.2017 30.9397C37.324 30.8173 37.3927 30.6513 37.3926 30.4783C37.3926 30.3053 37.3238 30.1393 37.2014 30.017C37.079 29.8947 36.913 29.8261 36.74 29.8261Z" fill="#BCC4C8"/>
</g>
<path d="M69.2387 14V2.64H76.8707V4.576H71.4467V7.504H75.9587V9.296H71.4467V14H69.2387ZM81.5593 14.16C80.8873 14.16 80.2793 14.048 79.7353 13.824C79.1913 13.5893 78.7273 13.2747 78.3433 12.88C77.9593 12.4853 77.6606 12.0267 77.4473 11.504C77.2446 10.9813 77.1433 10.432 77.1433 9.856C77.1433 9.25867 77.2446 8.69867 77.4473 8.176C77.65 7.64267 77.9433 7.17867 78.3273 6.784C78.7113 6.37867 79.1753 6.05867 79.7193 5.824C80.274 5.58933 80.8926 5.472 81.5753 5.472C82.258 5.472 82.866 5.58933 83.3993 5.824C83.9433 6.05867 84.402 6.37333 84.7753 6.768C85.1593 7.16267 85.4473 7.62133 85.6393 8.144C85.842 8.66667 85.9433 9.21067 85.9433 9.776C85.9433 9.91467 85.938 10.048 85.9273 10.176C85.9273 10.304 85.9166 10.4107 85.8953 10.496H79.4153C79.4473 10.8267 79.5273 11.12 79.6553 11.376C79.7833 11.632 79.9486 11.8507 80.1513 12.032C80.354 12.2133 80.5833 12.352 80.8393 12.448C81.0953 12.544 81.362 12.592 81.6393 12.592C82.066 12.592 82.466 12.4907 82.8393 12.288C83.2233 12.0747 83.4846 11.7973 83.6233 11.456L85.4633 11.968C85.154 12.608 84.658 13.136 83.9753 13.552C83.3033 13.9573 82.498 14.16 81.5593 14.16ZM83.7353 9.104C83.682 8.47467 83.4473 7.97333 83.0313 7.6C82.626 7.216 82.13 7.024 81.5433 7.024C81.2553 7.024 80.9833 7.07733 80.7273 7.184C80.482 7.28 80.2633 7.41867 80.0713 7.6C79.8793 7.78133 79.7193 8 79.5913 8.256C79.474 8.512 79.4046 8.79467 79.3833 9.104H83.7353ZM90.7214 14.16C90.1454 14.16 89.6121 14.048 89.1214 13.824C88.6308 13.6 88.2094 13.2907 87.8574 12.896C87.5054 12.5013 87.2281 12.0427 87.0254 11.52C86.8334 10.9867 86.7374 10.416 86.7374 9.808C86.7374 9.2 86.8281 8.63467 87.0094 8.112C87.2014 7.58933 87.4628 7.13067 87.7934 6.736C88.1241 6.34133 88.5188 6.032 88.9774 5.808C89.4361 5.584 89.9374 5.472 90.4814 5.472C91.1001 5.472 91.6548 5.62133 92.1454 5.92C92.6468 6.21867 93.0361 6.608 93.3134 7.088V2.32H95.4574V11.536C95.4574 11.76 95.4948 11.92 95.5694 12.016C95.6441 12.112 95.7721 12.1653 95.9534 12.176V14C95.5801 14.0747 95.2761 14.112 95.0414 14.112C94.6574 14.112 94.3428 14.016 94.0974 13.824C93.8521 13.632 93.7134 13.3813 93.6814 13.072L93.6334 12.544C93.3241 13.0773 92.9028 13.4827 92.3694 13.76C91.8468 14.0267 91.2974 14.16 90.7214 14.16ZM91.2814 12.336C91.4841 12.336 91.6921 12.304 91.9054 12.24C92.1188 12.1653 92.3161 12.064 92.4974 11.936C92.6788 11.808 92.8388 11.6587 92.9774 11.488C93.1268 11.3173 93.2388 11.1307 93.3134 10.928V8.928C93.2281 8.69333 93.1054 8.48 92.9454 8.288C92.7961 8.08533 92.6201 7.91467 92.4174 7.776C92.2254 7.62667 92.0174 7.50933 91.7934 7.424C91.5801 7.33867 91.3668 7.296 91.1534 7.296C90.8334 7.296 90.5348 7.36533 90.2574 7.504C89.9908 7.64267 89.7614 7.83467 89.5694 8.08C89.3774 8.31467 89.2281 8.58667 89.1214 8.896C89.0148 9.20533 88.9614 9.52533 88.9614 9.856C88.9614 10.208 89.0201 10.5333 89.1374 10.832C89.2548 11.1307 89.4148 11.392 89.6174 11.616C89.8201 11.84 90.0601 12.016 90.3374 12.144C90.6254 12.272 90.9401 12.336 91.2814 12.336ZM101.45 14.16C100.778 14.16 100.17 14.048 99.6259 13.824C99.0819 13.5893 98.6179 13.2747 98.2339 12.88C97.8499 12.4853 97.5513 12.0267 97.3379 11.504C97.1353 10.9813 97.0339 10.432 97.0339 9.856C97.0339 9.25867 97.1353 8.69867 97.3379 8.176C97.5406 7.64267 97.8339 7.17867 98.2179 6.784C98.6019 6.37867 99.0659 6.05867 99.6099 5.824C100.165 5.58933 100.783 5.472 101.466 5.472C102.149 5.472 102.757 5.58933 103.29 5.824C103.834 6.05867 104.293 6.37333 104.666 6.768C105.05 7.16267 105.338 7.62133 105.53 8.144C105.733 8.66667 105.834 9.21067 105.834 9.776C105.834 9.91467 105.829 10.048 105.818 10.176C105.818 10.304 105.807 10.4107 105.786 10.496H99.3059C99.3379 10.8267 99.4179 11.12 99.5459 11.376C99.6739 11.632 99.8393 11.8507 100.042 12.032C100.245 12.2133 100.474 12.352 100.73 12.448C100.986 12.544 101.253 12.592 101.53 12.592C101.957 12.592 102.357 12.4907 102.73 12.288C103.114 12.0747 103.375 11.7973 103.514 11.456L105.354 11.968C105.045 12.608 104.549 13.136 103.866 13.552C103.194 13.9573 102.389 14.16 101.45 14.16ZM103.626 9.104C103.573 8.47467 103.338 7.97333 102.922 7.6C102.517 7.216 102.021 7.024 101.434 7.024C101.146 7.024 100.874 7.07733 100.618 7.184C100.373 7.28 100.154 7.41867 99.9619 7.6C99.7699 7.78133 99.6099 8 99.4819 8.256C99.3646 8.512 99.2953 8.79467 99.2739 9.104H103.626ZM112.132 7.472C111.481 7.48267 110.9 7.61067 110.388 7.856C109.876 8.09067 109.508 8.448 109.284 8.928V14H107.14V5.616H109.108V7.408C109.257 7.12 109.433 6.864 109.636 6.64C109.839 6.40533 110.057 6.20267 110.292 6.032C110.527 5.86133 110.761 5.73333 110.996 5.648C111.241 5.552 111.476 5.504 111.7 5.504C111.817 5.504 111.903 5.504 111.956 5.504C112.02 5.504 112.079 5.50933 112.132 5.52V7.472ZM113.328 14V5.616H115.472V14H113.328ZM113.328 4.448V2.32H115.472V4.448H113.328ZM116.878 9.808C116.878 9.22133 116.979 8.66667 117.182 8.144C117.384 7.62133 117.678 7.16267 118.062 6.768C118.446 6.37333 118.91 6.05867 119.454 5.824C119.998 5.58933 120.611 5.472 121.294 5.472C122.211 5.472 122.99 5.66933 123.63 6.064C124.28 6.45867 124.766 6.976 125.086 7.616L122.99 8.256C122.808 7.94667 122.568 7.712 122.27 7.552C121.971 7.38133 121.64 7.296 121.278 7.296C120.968 7.296 120.68 7.36 120.414 7.488C120.147 7.60533 119.912 7.776 119.71 8C119.518 8.21333 119.363 8.47467 119.246 8.784C119.139 9.09333 119.086 9.43467 119.086 9.808C119.086 10.1813 119.144 10.5227 119.262 10.832C119.379 11.1413 119.534 11.408 119.726 11.632C119.928 11.856 120.163 12.032 120.43 12.16C120.696 12.2773 120.979 12.336 121.278 12.336C121.662 12.336 122.014 12.24 122.334 12.048C122.664 11.856 122.894 11.6213 123.022 11.344L125.118 11.984C124.83 12.624 124.355 13.1467 123.694 13.552C123.032 13.9573 122.238 14.16 121.31 14.16C120.627 14.16 120.014 14.0427 119.47 13.808C118.926 13.5733 118.462 13.2587 118.078 12.864C117.694 12.4587 117.395 11.9947 117.182 11.472C116.979 10.9387 116.878 10.384 116.878 9.808ZM130.231 14.16C129.548 14.16 128.935 14.0427 128.391 13.808C127.847 13.5733 127.383 13.2587 126.999 12.864C126.625 12.4587 126.337 11.9947 126.135 11.472C125.932 10.9493 125.831 10.4 125.831 9.824C125.831 9.23733 125.932 8.68267 126.135 8.16C126.337 7.63733 126.625 7.17867 126.999 6.784C127.383 6.37867 127.847 6.05867 128.391 5.824C128.935 5.58933 129.548 5.472 130.231 5.472C130.913 5.472 131.521 5.58933 132.055 5.824C132.599 6.05867 133.057 6.37867 133.431 6.784C133.815 7.17867 134.108 7.63733 134.311 8.16C134.513 8.68267 134.615 9.23733 134.615 9.824C134.615 10.4 134.513 10.9493 134.311 11.472C134.108 11.9947 133.82 12.4587 133.447 12.864C133.073 13.2587 132.615 13.5733 132.071 13.808C131.527 14.0427 130.913 14.16 130.231 14.16ZM128.039 9.824C128.039 10.1973 128.092 10.5387 128.199 10.848C128.316 11.1467 128.471 11.408 128.663 11.632C128.865 11.856 129.1 12.032 129.367 12.16C129.633 12.2773 129.921 12.336 130.231 12.336C130.54 12.336 130.828 12.2773 131.095 12.16C131.361 12.032 131.591 11.856 131.783 11.632C131.985 11.408 132.14 11.1413 132.247 10.832C132.364 10.5227 132.423 10.1813 132.423 9.808C132.423 9.44533 132.364 9.10933 132.247 8.8C132.14 8.49067 131.985 8.224 131.783 8C131.591 7.776 131.361 7.60533 131.095 7.488C130.828 7.36 130.54 7.296 130.231 7.296C129.921 7.296 129.633 7.36 129.367 7.488C129.1 7.616 128.865 7.792 128.663 8.016C128.471 8.24 128.316 8.50667 128.199 8.816C128.092 9.12533 128.039 9.46133 128.039 9.824ZM144.962 14.08C144.13 14.08 143.372 13.92 142.69 13.6C142.018 13.2693 141.436 12.8373 140.946 12.304C140.466 11.76 140.092 11.1413 139.826 10.448C139.559 9.75467 139.426 9.04533 139.426 8.32C139.426 7.56267 139.564 6.83733 139.842 6.144C140.13 5.45067 140.519 4.83733 141.01 4.304C141.511 3.77067 142.103 3.34933 142.786 3.04C143.468 2.72 144.21 2.56 145.01 2.56C145.831 2.56 146.578 2.73067 147.25 3.072C147.932 3.40267 148.514 3.84 148.994 4.384C149.474 4.928 149.847 5.54667 150.114 6.24C150.38 6.93333 150.514 7.63733 150.514 8.352C150.514 9.10933 150.375 9.83467 150.098 10.528C149.82 11.2107 149.436 11.8187 148.946 12.352C148.455 12.8747 147.868 13.296 147.186 13.616C146.503 13.9253 145.762 14.08 144.962 14.08ZM141.666 8.32C141.666 8.81067 141.74 9.28533 141.89 9.744C142.039 10.2027 142.252 10.608 142.53 10.96C142.818 11.312 143.164 11.5947 143.57 11.808C143.986 12.0213 144.455 12.128 144.978 12.128C145.511 12.128 145.98 12.0213 146.386 11.808C146.802 11.584 147.148 11.2907 147.426 10.928C147.714 10.5653 147.927 10.16 148.066 9.712C148.215 9.25333 148.29 8.78933 148.29 8.32C148.29 7.82933 148.21 7.35467 148.05 6.896C147.9 6.43733 147.682 6.032 147.394 5.68C147.116 5.328 146.77 5.05067 146.354 4.848C145.948 4.63467 145.49 4.528 144.978 4.528C144.444 4.528 143.97 4.64 143.554 4.864C143.138 5.07733 142.791 5.36533 142.514 5.728C142.236 6.08 142.023 6.48533 141.874 6.944C141.735 7.392 141.666 7.85067 141.666 8.32ZM151.983 2.32H154.127V11.312C154.127 11.6213 154.202 11.8613 154.351 12.032C154.501 12.2027 154.714 12.288 154.991 12.288C155.119 12.288 155.258 12.2667 155.407 12.224C155.567 12.1813 155.717 12.128 155.855 12.064L156.143 13.696C155.855 13.8347 155.519 13.9413 155.135 14.016C154.751 14.0907 154.405 14.128 154.095 14.128C153.423 14.128 152.901 13.952 152.527 13.6C152.165 13.2373 151.983 12.7253 151.983 12.064V2.32ZM157.078 14V5.616H159.222V14H157.078ZM157.078 4.448V2.32H159.222V4.448H157.078ZM163.412 14L160.324 5.616H162.532L164.66 12.256L166.804 5.616H168.82L165.732 14H163.412ZM172.022 14.16C171.616 14.16 171.238 14.096 170.886 13.968C170.534 13.8293 170.23 13.6427 169.974 13.408C169.718 13.1627 169.515 12.88 169.366 12.56C169.227 12.24 169.158 11.888 169.158 11.504C169.158 11.1093 169.243 10.7467 169.414 10.416C169.595 10.0747 169.84 9.78667 170.15 9.552C170.47 9.31733 170.848 9.136 171.286 9.008C171.723 8.86933 172.203 8.8 172.726 8.8C173.099 8.8 173.462 8.832 173.814 8.896C174.176 8.96 174.496 9.05067 174.774 9.168V8.688C174.774 8.13333 174.614 7.70667 174.294 7.408C173.984 7.10933 173.52 6.96 172.902 6.96C172.454 6.96 172.016 7.04 171.59 7.2C171.163 7.36 170.726 7.59467 170.278 7.904L169.622 6.544C170.699 5.82933 171.862 5.472 173.11 5.472C174.315 5.472 175.248 5.77067 175.91 6.368C176.582 6.95467 176.918 7.808 176.918 8.928V11.536C176.918 11.76 176.955 11.92 177.03 12.016C177.115 12.112 177.248 12.1653 177.43 12.176V14C177.067 14.0747 176.752 14.112 176.486 14.112C176.08 14.112 175.766 14.0213 175.542 13.84C175.328 13.6587 175.195 13.4187 175.142 13.12L175.094 12.656C174.72 13.1467 174.267 13.52 173.734 13.776C173.2 14.032 172.63 14.16 172.022 14.16ZM172.63 12.592C172.992 12.592 173.334 12.528 173.654 12.4C173.984 12.272 174.24 12.1013 174.422 11.888C174.656 11.7067 174.774 11.504 174.774 11.28V10.32C174.518 10.224 174.24 10.1493 173.942 10.096C173.643 10.032 173.355 10 173.078 10C172.523 10 172.07 10.128 171.718 10.384C171.366 10.6293 171.19 10.944 171.19 11.328C171.19 11.6907 171.328 11.9947 171.606 12.24C171.883 12.4747 172.224 12.592 172.63 12.592ZM52.2778 30V18.64H56.4058C57.3338 18.64 58.1444 18.7893 58.8378 19.088C59.5418 19.3867 60.1284 19.792 60.5978 20.304C61.0671 20.816 61.4191 21.4187 61.6538 22.112C61.8884 22.7947 62.0058 23.5253 62.0058 24.304C62.0058 25.168 61.8724 25.952 61.6058 26.656C61.3498 27.3493 60.9764 27.9467 60.4858 28.448C59.9951 28.9387 59.4031 29.3227 58.7098 29.6C58.0271 29.8667 57.2591 30 56.4058 30H52.2778ZM59.7818 24.304C59.7818 23.76 59.7071 23.2587 59.5578 22.8C59.4084 22.3413 59.1898 21.9467 58.9018 21.616C58.6138 21.2853 58.2564 21.0293 57.8298 20.848C57.4138 20.6667 56.9391 20.576 56.4058 20.576H54.4858V28.064H56.4058C56.9498 28.064 57.4298 27.968 57.8458 27.776C58.2724 27.584 58.6244 27.3227 58.9018 26.992C59.1898 26.6507 59.4084 26.2507 59.5578 25.792C59.7071 25.3333 59.7818 24.8373 59.7818 24.304ZM67.4109 30.16C66.7389 30.16 66.1309 30.048 65.5869 29.824C65.0429 29.5893 64.5789 29.2747 64.1949 28.88C63.8109 28.4853 63.5122 28.0267 63.2989 27.504C63.0962 26.9813 62.9949 26.432 62.9949 25.856C62.9949 25.2587 63.0962 24.6987 63.2989 24.176C63.5015 23.6427 63.7949 23.1787 64.1789 22.784C64.5629 22.3787 65.0269 22.0587 65.5709 21.824C66.1255 21.5893 66.7442 21.472 67.4269 21.472C68.1095 21.472 68.7175 21.5893 69.2509 21.824C69.7949 22.0587 70.2535 22.3733 70.6269 22.768C71.0109 23.1627 71.2989 23.6213 71.4909 24.144C71.6935 24.6667 71.7949 25.2107 71.7949 25.776C71.7949 25.9147 71.7895 26.048 71.7789 26.176C71.7789 26.304 71.7682 26.4107 71.7469 26.496H65.2669C65.2989 26.8267 65.3789 27.12 65.5069 27.376C65.6349 27.632 65.8002 27.8507 66.0029 28.032C66.2055 28.2133 66.4349 28.352 66.6909 28.448C66.9469 28.544 67.2135 28.592 67.4909 28.592C67.9175 28.592 68.3175 28.4907 68.6909 28.288C69.0749 28.0747 69.3362 27.7973 69.4749 27.456L71.3149 27.968C71.0055 28.608 70.5095 29.136 69.8269 29.552C69.1549 29.9573 68.3495 30.16 67.4109 30.16ZM69.5869 25.104C69.5335 24.4747 69.2989 23.9733 68.8829 23.6C68.4775 23.216 67.9815 23.024 67.3949 23.024C67.1069 23.024 66.8349 23.0773 66.5789 23.184C66.3335 23.28 66.1149 23.4187 65.9229 23.6C65.7309 23.7813 65.5709 24 65.4429 24.256C65.3255 24.512 65.2562 24.7947 65.2349 25.104H69.5869ZM76.269 30.16C75.565 30.16 74.877 30.048 74.205 29.824C73.533 29.6 72.957 29.28 72.477 28.864L73.277 27.52C73.789 27.8827 74.285 28.16 74.765 28.352C75.2557 28.5333 75.741 28.624 76.221 28.624C76.6477 28.624 76.9837 28.544 77.229 28.384C77.4743 28.224 77.597 27.9947 77.597 27.696C77.597 27.3973 77.453 27.1787 77.165 27.04C76.877 26.9013 76.4077 26.7413 75.757 26.56C75.213 26.4107 74.749 26.2667 74.365 26.128C73.981 25.9893 73.6717 25.8347 73.437 25.664C73.2023 25.4827 73.0317 25.28 72.925 25.056C72.8183 24.8213 72.765 24.544 72.765 24.224C72.765 23.7973 72.845 23.4133 73.005 23.072C73.1757 22.7307 73.4103 22.4427 73.709 22.208C74.0077 21.9627 74.3543 21.776 74.749 21.648C75.1543 21.52 75.5917 21.456 76.061 21.456C76.6903 21.456 77.277 21.5467 77.821 21.728C78.3757 21.9093 78.8823 22.2027 79.341 22.608L78.477 23.904C78.0503 23.584 77.6343 23.3493 77.229 23.2C76.8343 23.0507 76.4397 22.976 76.045 22.976C75.6823 22.976 75.3783 23.0507 75.133 23.2C74.8877 23.3493 74.765 23.5893 74.765 23.92C74.765 24.0693 74.7917 24.192 74.845 24.288C74.909 24.384 75.005 24.4693 75.133 24.544C75.261 24.6187 75.4263 24.6933 75.629 24.768C75.8423 24.832 76.1037 24.9013 76.413 24.976C76.989 25.1253 77.4797 25.2747 77.885 25.424C78.301 25.5733 78.637 25.744 78.893 25.936C79.1597 26.128 79.3517 26.352 79.469 26.608C79.597 26.8533 79.661 27.152 79.661 27.504C79.661 28.3253 79.357 28.976 78.749 29.456C78.141 29.9253 77.3143 30.16 76.269 30.16ZM83.3421 30.16C82.9368 30.16 82.5581 30.096 82.2061 29.968C81.8541 29.8293 81.5501 29.6427 81.2941 29.408C81.0381 29.1627 80.8355 28.88 80.6861 28.56C80.5475 28.24 80.4781 27.888 80.4781 27.504C80.4781 27.1093 80.5635 26.7467 80.7341 26.416C80.9155 26.0747 81.1608 25.7867 81.4701 25.552C81.7901 25.3173 82.1688 25.136 82.6061 25.008C83.0435 24.8693 83.5235 24.8 84.0461 24.8C84.4195 24.8 84.7821 24.832 85.1341 24.896C85.4968 24.96 85.8168 25.0507 86.0941 25.168V24.688C86.0941 24.1333 85.9341 23.7067 85.6141 23.408C85.3048 23.1093 84.8408 22.96 84.2221 22.96C83.7741 22.96 83.3368 23.04 82.9101 23.2C82.4835 23.36 82.0461 23.5947 81.5981 23.904L80.9421 22.544C82.0195 21.8293 83.1821 21.472 84.4301 21.472C85.6355 21.472 86.5688 21.7707 87.2301 22.368C87.9021 22.9547 88.2381 23.808 88.2381 24.928V27.536C88.2381 27.76 88.2755 27.92 88.3501 28.016C88.4355 28.112 88.5688 28.1653 88.7501 28.176V30C88.3875 30.0747 88.0728 30.112 87.8061 30.112C87.4008 30.112 87.0861 30.0213 86.8621 29.84C86.6488 29.6587 86.5155 29.4187 86.4621 29.12L86.4141 28.656C86.0408 29.1467 85.5875 29.52 85.0541 29.776C84.5208 30.032 83.9501 30.16 83.3421 30.16ZM83.9501 28.592C84.3128 28.592 84.6541 28.528 84.9741 28.4C85.3048 28.272 85.5608 28.1013 85.7421 27.888C85.9768 27.7067 86.0941 27.504 86.0941 27.28V26.32C85.8381 26.224 85.5608 26.1493 85.2621 26.096C84.9635 26.032 84.6755 26 84.3981 26C83.8435 26 83.3901 26.128 83.0381 26.384C82.6861 26.6293 82.5101 26.944 82.5101 27.328C82.5101 27.6907 82.6488 27.9947 82.9261 28.24C83.2035 28.4747 83.5448 28.592 83.9501 28.592ZM95.2336 23.472C94.583 23.4827 94.0016 23.6107 93.4896 23.856C92.9776 24.0907 92.6096 24.448 92.3856 24.928V30H90.2416V21.616H92.2096V23.408C92.359 23.12 92.535 22.864 92.7376 22.64C92.9403 22.4053 93.159 22.2027 93.3936 22.032C93.6283 21.8613 93.863 21.7333 94.0976 21.648C94.343 21.552 94.5776 21.504 94.8016 21.504C94.919 21.504 95.0043 21.504 95.0576 21.504C95.1216 21.504 95.1803 21.5093 95.2336 21.52V23.472ZM101.421 23.472C100.77 23.4827 100.189 23.6107 99.6771 23.856C99.1651 24.0907 98.7971 24.448 98.5731 24.928V30H96.4291V21.616H98.3971V23.408C98.5465 23.12 98.7225 22.864 98.9251 22.64C99.1278 22.4053 99.3465 22.2027 99.5811 22.032C99.8158 21.8613 100.05 21.7333 100.285 21.648C100.53 21.552 100.765 21.504 100.989 21.504C101.106 21.504 101.192 21.504 101.245 21.504C101.309 21.504 101.368 21.5093 101.421 21.52V23.472ZM106.067 30.16C105.384 30.16 104.771 30.0427 104.227 29.808C103.683 29.5733 103.219 29.2587 102.835 28.864C102.461 28.4587 102.173 27.9947 101.971 27.472C101.768 26.9493 101.667 26.4 101.667 25.824C101.667 25.2373 101.768 24.6827 101.971 24.16C102.173 23.6373 102.461 23.1787 102.835 22.784C103.219 22.3787 103.683 22.0587 104.227 21.824C104.771 21.5893 105.384 21.472 106.067 21.472C106.749 21.472 107.357 21.5893 107.891 21.824C108.435 22.0587 108.893 22.3787 109.267 22.784C109.651 23.1787 109.944 23.6373 110.147 24.16C110.349 24.6827 110.451 25.2373 110.451 25.824C110.451 26.4 110.349 26.9493 110.147 27.472C109.944 27.9947 109.656 28.4587 109.283 28.864C108.909 29.2587 108.451 29.5733 107.907 29.808C107.363 30.0427 106.749 30.16 106.067 30.16ZM103.875 25.824C103.875 26.1973 103.928 26.5387 104.035 26.848C104.152 27.1467 104.307 27.408 104.499 27.632C104.701 27.856 104.936 28.032 105.203 28.16C105.469 28.2773 105.757 28.336 106.067 28.336C106.376 28.336 106.664 28.2773 106.931 28.16C107.197 28.032 107.427 27.856 107.619 27.632C107.821 27.408 107.976 27.1413 108.083 26.832C108.2 26.5227 108.259 26.1813 108.259 25.808C108.259 25.4453 108.2 25.1093 108.083 24.8C107.976 24.4907 107.821 24.224 107.619 24C107.427 23.776 107.197 23.6053 106.931 23.488C106.664 23.36 106.376 23.296 106.067 23.296C105.757 23.296 105.469 23.36 105.203 23.488C104.936 23.616 104.701 23.792 104.499 24.016C104.307 24.24 104.152 24.5067 104.035 24.816C103.928 25.1253 103.875 25.4613 103.875 25.824ZM111.882 18.32H114.026V27.312C114.026 27.6213 114.101 27.8613 114.25 28.032C114.399 28.2027 114.613 28.288 114.89 28.288C115.018 28.288 115.157 28.2667 115.306 28.224C115.466 28.1813 115.615 28.128 115.754 28.064L116.042 29.696C115.754 29.8347 115.418 29.9413 115.034 30.016C114.65 30.0907 114.303 30.128 113.994 30.128C113.322 30.128 112.799 29.952 112.426 29.6C112.063 29.2373 111.882 28.7253 111.882 28.064V18.32ZM116.96 18.32H119.104V27.312C119.104 27.6213 119.179 27.8613 119.328 28.032C119.477 28.2027 119.691 28.288 119.968 28.288C120.096 28.288 120.235 28.2667 120.384 28.224C120.544 28.1813 120.693 28.128 120.832 28.064L121.12 29.696C120.832 29.8347 120.496 29.9413 120.112 30.016C119.728 30.0907 119.381 30.128 119.072 30.128C118.4 30.128 117.877 29.952 117.504 29.6C117.141 29.2373 116.96 28.7253 116.96 28.064V18.32ZM124.342 30.16C123.937 30.16 123.558 30.096 123.206 29.968C122.854 29.8293 122.55 29.6427 122.294 29.408C122.038 29.1627 121.835 28.88 121.686 28.56C121.547 28.24 121.478 27.888 121.478 27.504C121.478 27.1093 121.563 26.7467 121.734 26.416C121.915 26.0747 122.161 25.7867 122.47 25.552C122.79 25.3173 123.169 25.136 123.606 25.008C124.043 24.8693 124.523 24.8 125.046 24.8C125.419 24.8 125.782 24.832 126.134 24.896C126.497 24.96 126.817 25.0507 127.094 25.168V24.688C127.094 24.1333 126.934 23.7067 126.614 23.408C126.305 23.1093 125.841 22.96 125.222 22.96C124.774 22.96 124.337 23.04 123.91 23.2C123.483 23.36 123.046 23.5947 122.598 23.904L121.942 22.544C123.019 21.8293 124.182 21.472 125.43 21.472C126.635 21.472 127.569 21.7707 128.23 22.368C128.902 22.9547 129.238 23.808 129.238 24.928V27.536C129.238 27.76 129.275 27.92 129.35 28.016C129.435 28.112 129.569 28.1653 129.75 28.176V30C129.387 30.0747 129.073 30.112 128.806 30.112C128.401 30.112 128.086 30.0213 127.862 29.84C127.649 29.6587 127.515 29.4187 127.462 29.12L127.414 28.656C127.041 29.1467 126.587 29.52 126.054 29.776C125.521 30.032 124.95 30.16 124.342 30.16ZM124.95 28.592C125.313 28.592 125.654 28.528 125.974 28.4C126.305 28.272 126.561 28.1013 126.742 27.888C126.977 27.7067 127.094 27.504 127.094 27.28V26.32C126.838 26.224 126.561 26.1493 126.262 26.096C125.963 26.032 125.675 26 125.398 26C124.843 26 124.39 26.128 124.038 26.384C123.686 26.6293 123.51 26.944 123.51 27.328C123.51 27.6907 123.649 27.9947 123.926 28.24C124.203 28.4747 124.545 28.592 124.95 28.592ZM134.714 30.16C134.138 30.16 133.604 30.048 133.114 29.824C132.623 29.6 132.202 29.2907 131.85 28.896C131.498 28.5013 131.22 28.0427 131.018 27.52C130.826 26.9867 130.73 26.416 130.73 25.808C130.73 25.2 130.82 24.6347 131.002 24.112C131.194 23.5893 131.455 23.1307 131.786 22.736C132.116 22.3413 132.511 22.032 132.97 21.808C133.428 21.584 133.93 21.472 134.474 21.472C135.092 21.472 135.647 21.6213 136.138 21.92C136.639 22.2187 137.028 22.608 137.306 23.088V18.32H139.45V27.536C139.45 27.76 139.487 27.92 139.562 28.016C139.636 28.112 139.764 28.1653 139.946 28.176V30C139.572 30.0747 139.268 30.112 139.034 30.112C138.65 30.112 138.335 30.016 138.09 29.824C137.844 29.632 137.706 29.3813 137.674 29.072L137.626 28.544C137.316 29.0773 136.895 29.4827 136.362 29.76C135.839 30.0267 135.29 30.16 134.714 30.16ZM135.274 28.336C135.476 28.336 135.684 28.304 135.898 28.24C136.111 28.1653 136.308 28.064 136.49 27.936C136.671 27.808 136.831 27.6587 136.97 27.488C137.119 27.3173 137.231 27.1307 137.306 26.928V24.928C137.22 24.6933 137.098 24.48 136.938 24.288C136.788 24.0853 136.612 23.9147 136.41 23.776C136.218 23.6267 136.01 23.5093 135.786 23.424C135.572 23.3387 135.359 23.296 135.146 23.296C134.826 23.296 134.527 23.3653 134.25 23.504C133.983 23.6427 133.754 23.8347 133.562 24.08C133.37 24.3147 133.22 24.5867 133.114 24.896C133.007 25.2053 132.954 25.5253 132.954 25.856C132.954 26.208 133.012 26.5333 133.13 26.832C133.247 27.1307 133.407 27.392 133.61 27.616C133.812 27.84 134.052 28.016 134.33 28.144C134.618 28.272 134.932 28.336 135.274 28.336ZM145.426 30.16C144.743 30.16 144.13 30.0427 143.586 29.808C143.042 29.5733 142.578 29.2587 142.194 28.864C141.821 28.4587 141.533 27.9947 141.33 27.472C141.127 26.9493 141.026 26.4 141.026 25.824C141.026 25.2373 141.127 24.6827 141.33 24.16C141.533 23.6373 141.821 23.1787 142.194 22.784C142.578 22.3787 143.042 22.0587 143.586 21.824C144.13 21.5893 144.743 21.472 145.426 21.472C146.109 21.472 146.717 21.5893 147.25 21.824C147.794 22.0587 148.253 22.3787 148.626 22.784C149.01 23.1787 149.303 23.6373 149.506 24.16C149.709 24.6827 149.81 25.2373 149.81 25.824C149.81 26.4 149.709 26.9493 149.506 27.472C149.303 27.9947 149.015 28.4587 148.642 28.864C148.269 29.2587 147.81 29.5733 147.266 29.808C146.722 30.0427 146.109 30.16 145.426 30.16ZM143.234 25.824C143.234 26.1973 143.287 26.5387 143.394 26.848C143.511 27.1467 143.666 27.408 143.858 27.632C144.061 27.856 144.295 28.032 144.562 28.16C144.829 28.2773 145.117 28.336 145.426 28.336C145.735 28.336 146.023 28.2773 146.29 28.16C146.557 28.032 146.786 27.856 146.978 27.632C147.181 27.408 147.335 27.1413 147.442 26.832C147.559 26.5227 147.618 26.1813 147.618 25.808C147.618 25.4453 147.559 25.1093 147.442 24.8C147.335 24.4907 147.181 24.224 146.978 24C146.786 23.776 146.557 23.6053 146.29 23.488C146.023 23.36 145.735 23.296 145.426 23.296C145.117 23.296 144.829 23.36 144.562 23.488C144.295 23.616 144.061 23.792 143.858 24.016C143.666 24.24 143.511 24.5067 143.394 24.816C143.287 25.1253 143.234 25.4613 143.234 25.824ZM156.249 23.472C155.599 23.4827 155.017 23.6107 154.505 23.856C153.993 24.0907 153.625 24.448 153.401 24.928V30H151.257V21.616H153.225V23.408C153.375 23.12 153.551 22.864 153.753 22.64C153.956 22.4053 154.175 22.2027 154.409 22.032C154.644 21.8613 154.879 21.7333 155.113 21.648C155.359 21.552 155.593 21.504 155.817 21.504C155.935 21.504 156.02 21.504 156.073 21.504C156.137 21.504 156.196 21.5093 156.249 21.52V23.472ZM164.479 18.672H166.511L167.791 22.432L169.071 18.672H171.119L169.183 23.84L170.623 27.472L173.839 18.64H176.239L171.615 30H169.759L167.791 25.232L165.823 30H163.967L159.375 18.64H161.743L164.975 27.472L166.383 23.84L164.479 18.672ZM180.052 30.16C179.38 30.16 178.772 30.048 178.228 29.824C177.684 29.5893 177.22 29.2747 176.836 28.88C176.452 28.4853 176.153 28.0267 175.94 27.504C175.737 26.9813 175.636 26.432 175.636 25.856C175.636 25.2587 175.737 24.6987 175.94 24.176C176.142 23.6427 176.436 23.1787 176.82 22.784C177.204 22.3787 177.668 22.0587 178.212 21.824C178.766 21.5893 179.385 21.472 180.068 21.472C180.75 21.472 181.358 21.5893 181.892 21.824C182.436 22.0587 182.894 22.3733 183.267 22.768C183.652 23.1627 183.94 23.6213 184.132 24.144C184.334 24.6667 184.436 25.2107 184.436 25.776C184.436 25.9147 184.43 26.048 184.42 26.176C184.42 26.304 184.409 26.4107 184.388 26.496H177.908C177.94 26.8267 178.02 27.12 178.148 27.376C178.276 27.632 178.441 27.8507 178.644 28.032C178.846 28.2133 179.076 28.352 179.332 28.448C179.588 28.544 179.854 28.592 180.132 28.592C180.558 28.592 180.958 28.4907 181.332 28.288C181.716 28.0747 181.977 27.7973 182.116 27.456L183.956 27.968C183.646 28.608 183.15 29.136 182.468 29.552C181.796 29.9573 180.99 30.16 180.052 30.16ZM182.228 25.104C182.174 24.4747 181.94 23.9733 181.524 23.6C181.118 23.216 180.622 23.024 180.036 23.024C179.748 23.024 179.476 23.0773 179.22 23.184C178.974 23.28 178.756 23.4187 178.564 23.6C178.372 23.7813 178.212 24 178.084 24.256C177.966 24.512 177.897 24.7947 177.876 25.104H182.228ZM190.51 30.16C189.87 30.16 189.299 30.016 188.798 29.728C188.296 29.44 187.902 29.0453 187.614 28.544V30H185.742V18.32H187.886V23.088C188.184 22.576 188.574 22.1813 189.054 21.904C189.544 21.616 190.115 21.472 190.766 21.472C191.31 21.472 191.806 21.5893 192.254 21.824C192.702 22.0587 193.086 22.3733 193.406 22.768C193.736 23.1627 193.987 23.6267 194.158 24.16C194.339 24.6933 194.43 25.2533 194.43 25.84C194.43 26.448 194.328 27.0133 194.126 27.536C193.934 28.0587 193.662 28.5173 193.31 28.912C192.958 29.296 192.542 29.6 192.062 29.824C191.582 30.048 191.064 30.16 190.51 30.16ZM189.918 28.336C190.259 28.336 190.574 28.272 190.862 28.144C191.15 28.0053 191.395 27.824 191.598 27.6C191.8 27.376 191.955 27.1147 192.062 26.816C192.179 26.5173 192.238 26.1973 192.238 25.856C192.238 25.5147 192.184 25.1893 192.078 24.88C191.971 24.5707 191.816 24.2987 191.614 24.064C191.422 23.8293 191.192 23.6427 190.926 23.504C190.659 23.3653 190.366 23.296 190.046 23.296C189.566 23.296 189.134 23.456 188.75 23.776C188.376 24.0853 188.088 24.4693 187.886 24.928V26.928C187.96 27.1413 188.067 27.3333 188.206 27.504C188.355 27.6747 188.52 27.824 188.702 27.952C188.883 28.0693 189.08 28.1653 189.294 28.24C189.507 28.304 189.715 28.336 189.918 28.336Z" fill="#333333"/>
<defs>
<clipPath id="clip0">
<rect width="43.48" height="30" fill="white" transform="translate(0 2)"/>
</clipPath>
</defs>
</svg>
