<svg width="164" height="20" viewBox="0 0 164 20" fill="none" xmlns="http://www.w3.org/2000/svg">
<path d="M16.25 0C17.283 0 18.1662 0.366753 18.8997 1.10026C19.6332 1.83377 20 2.71701 20 3.75V16.25C20 17.283 19.6332 18.1662 18.8997 18.8997C18.1662 19.6332 17.283 20 16.25 20H13.8021V12.2526H16.3932L16.7839 9.23177H13.8021V7.30469C13.8021 6.81858 13.9041 6.45399 14.1081 6.21094C14.3121 5.96788 14.7092 5.84635 15.2995 5.84635L16.888 5.83333V3.13802C16.3411 3.0599 15.5686 3.02083 14.5703 3.02083C13.3898 3.02083 12.4457 3.36806 11.7383 4.0625C11.0308 4.75694 10.6771 5.73785 10.6771 7.00521V9.23177H8.07292V12.2526H10.6771V20H3.75C2.71701 20 1.83377 19.6332 1.10026 18.8997C0.366753 18.1662 0 17.283 0 16.25V3.75C0 2.71701 0.366753 1.83377 1.10026 1.10026C1.83377 0.366753 2.71701 0 3.75 0H16.25Z" fill="#333333"/>
<path d="M81.3333 10C81.3333 9.07986 81.0078 8.29427 80.3568 7.64323C79.7057 6.99219 78.9201 6.66667 78 6.66667C77.0799 6.66667 76.2943 6.99219 75.6432 7.64323C74.9922 8.29427 74.6667 9.07986 74.6667 10C74.6667 10.9201 74.9922 11.7057 75.6432 12.3568C76.2943 13.0078 77.0799 13.3333 78 13.3333C78.9201 13.3333 79.7057 13.0078 80.3568 12.3568C81.0078 11.7057 81.3333 10.9201 81.3333 10ZM83.1302 10C83.1302 11.4236 82.6311 12.6345 81.6328 13.6328C80.6345 14.6311 79.4236 15.1302 78 15.1302C76.5764 15.1302 75.3655 14.6311 74.3672 13.6328C73.3689 12.6345 72.8698 11.4236 72.8698 10C72.8698 8.57639 73.3689 7.36545 74.3672 6.36719C75.3655 5.36892 76.5764 4.86979 78 4.86979C79.4236 4.86979 80.6345 5.36892 81.6328 6.36719C82.6311 7.36545 83.1302 8.57639 83.1302 10ZM84.5365 4.66146C84.5365 4.99132 84.4193 5.27344 84.1849 5.50781C83.9505 5.74219 83.6684 5.85938 83.3385 5.85938C83.0087 5.85938 82.7266 5.74219 82.4922 5.50781C82.2578 5.27344 82.1406 4.99132 82.1406 4.66146C82.1406 4.3316 82.2578 4.04948 82.4922 3.8151C82.7266 3.58073 83.0087 3.46354 83.3385 3.46354C83.6684 3.46354 83.9505 3.58073 84.1849 3.8151C84.4193 4.04948 84.5365 4.3316 84.5365 4.66146ZM78 1.79688C77.9392 1.79688 77.6072 1.7947 77.0039 1.79036C76.4006 1.78602 75.9427 1.78602 75.6302 1.79036C75.3177 1.7947 74.8989 1.80773 74.3737 1.82943C73.8485 1.85113 73.4015 1.89453 73.0326 1.95964C72.6636 2.02474 72.3533 2.10503 72.1016 2.20052C71.6675 2.37413 71.2856 2.62587 70.9557 2.95573C70.6259 3.28559 70.3741 3.66753 70.2005 4.10156C70.105 4.3533 70.0247 4.66363 69.9596 5.03255C69.8945 5.40148 69.8511 5.84852 69.8294 6.3737C69.8077 6.89887 69.7947 7.31771 69.7904 7.63021C69.786 7.94271 69.786 8.40061 69.7904 9.00391C69.7947 9.6072 69.7969 9.93924 69.7969 10C69.7969 10.0608 69.7947 10.3928 69.7904 10.9961C69.786 11.5994 69.786 12.0573 69.7904 12.3698C69.7947 12.6823 69.8077 13.1011 69.8294 13.6263C69.8511 14.1515 69.8945 14.5985 69.9596 14.9674C70.0247 15.3364 70.105 15.6467 70.2005 15.8984C70.3741 16.3325 70.6259 16.7144 70.9557 17.0443C71.2856 17.3741 71.6675 17.6259 72.1016 17.7995C72.3533 17.895 72.6636 17.9753 73.0326 18.0404C73.4015 18.1055 73.8485 18.1489 74.3737 18.1706C74.8989 18.1923 75.3177 18.2053 75.6302 18.2096C75.9427 18.214 76.4006 18.214 77.0039 18.2096C77.6072 18.2053 77.9392 18.2031 78 18.2031C78.0608 18.2031 78.3928 18.2053 78.9961 18.2096C79.5994 18.214 80.0573 18.214 80.3698 18.2096C80.6823 18.2053 81.1011 18.1923 81.6263 18.1706C82.1515 18.1489 82.5985 18.1055 82.9674 18.0404C83.3364 17.9753 83.6467 17.895 83.8984 17.7995C84.3325 17.6259 84.7144 17.3741 85.0443 17.0443C85.3741 16.7144 85.6259 16.3325 85.7995 15.8984C85.895 15.6467 85.9753 15.3364 86.0404 14.9674C86.1055 14.5985 86.1489 14.1515 86.1706 13.6263C86.1923 13.1011 86.2053 12.6823 86.2096 12.3698C86.214 12.0573 86.214 11.5994 86.2096 10.9961C86.2053 10.3928 86.2031 10.0608 86.2031 10C86.2031 9.93924 86.2053 9.6072 86.2096 9.00391C86.214 8.40061 86.214 7.94271 86.2096 7.63021C86.2053 7.31771 86.1923 6.89887 86.1706 6.3737C86.1489 5.84852 86.1055 5.40148 86.0404 5.03255C85.9753 4.66363 85.895 4.3533 85.7995 4.10156C85.6259 3.66753 85.3741 3.28559 85.0443 2.95573C84.7144 2.62587 84.3325 2.37413 83.8984 2.20052C83.6467 2.10503 83.3364 2.02474 82.9674 1.95964C82.5985 1.89453 82.1515 1.85113 81.6263 1.82943C81.1011 1.80773 80.6823 1.7947 80.3698 1.79036C80.0573 1.78602 79.5994 1.78602 78.9961 1.79036C78.3928 1.7947 78.0608 1.79688 78 1.79688ZM88 10C88 11.9878 87.9783 13.3637 87.9349 14.1276C87.8481 15.9332 87.3099 17.3307 86.3203 18.3203C85.3307 19.3099 83.9332 19.8481 82.1276 19.9349C81.3637 19.9783 79.9878 20 78 20C76.0122 20 74.6363 19.9783 73.8724 19.9349C72.0668 19.8481 70.6693 19.3099 69.6797 18.3203C68.6901 17.3307 68.1519 15.9332 68.0651 14.1276C68.0217 13.3637 68 11.9878 68 10C68 8.01215 68.0217 6.63628 68.0651 5.8724C68.1519 4.06684 68.6901 2.66927 69.6797 1.67969C70.6693 0.690104 72.0668 0.15191 73.8724 0.0651042C74.6363 0.0217014 76.0122 0 78 0C79.9878 0 81.3637 0.0217014 82.1276 0.0651042C83.9332 0.15191 85.3307 0.690104 86.3203 1.67969C87.3099 2.66927 87.8481 4.06684 87.9349 5.8724C87.9783 6.63628 88 8.01215 88 10Z" fill="#333333"/>
<g clip-path="url(#clip0)">
<path d="M147.109 13.625L154.672 9.71875L147.109 5.76562V13.625ZM150 0.15625C151.75 0.15625 153.44 0.179688 155.07 0.226562C156.701 0.273438 157.896 0.322917 158.656 0.375L159.797 0.4375C159.807 0.4375 159.896 0.445312 160.062 0.460938C160.229 0.476562 160.349 0.492188 160.422 0.507812C160.495 0.523438 160.617 0.546875 160.789 0.578125C160.961 0.609375 161.109 0.651042 161.234 0.703125C161.359 0.755208 161.505 0.822917 161.672 0.90625C161.839 0.989583 162 1.09115 162.156 1.21094C162.312 1.33073 162.464 1.46875 162.609 1.625C162.672 1.6875 162.753 1.78385 162.852 1.91406C162.951 2.04427 163.102 2.34896 163.305 2.82812C163.508 3.30729 163.646 3.83333 163.719 4.40625C163.802 5.07292 163.867 5.78385 163.914 6.53906C163.961 7.29427 163.99 7.88542 164 8.3125V11.0625C164.01 12.5729 163.917 14.0833 163.719 15.5938C163.646 16.1667 163.516 16.6849 163.328 17.1484C163.141 17.612 162.974 17.9323 162.828 18.1094L162.609 18.375C162.464 18.5312 162.312 18.6693 162.156 18.7891C162 18.9089 161.839 19.0078 161.672 19.0859C161.505 19.1641 161.359 19.2292 161.234 19.2812C161.109 19.3333 160.961 19.375 160.789 19.4062C160.617 19.4375 160.492 19.4609 160.414 19.4766C160.336 19.4922 160.216 19.5078 160.055 19.5234C159.893 19.5391 159.807 19.5469 159.797 19.5469C157.182 19.7448 153.917 19.8438 150 19.8438C147.844 19.8229 145.971 19.7891 144.383 19.7422C142.794 19.6953 141.75 19.6562 141.25 19.625L140.484 19.5625L139.922 19.5C139.547 19.4479 139.263 19.3958 139.07 19.3438C138.878 19.2917 138.612 19.1823 138.273 19.0156C137.935 18.849 137.641 18.6354 137.391 18.375C137.328 18.3125 137.247 18.2161 137.148 18.0859C137.049 17.9557 136.898 17.651 136.695 17.1719C136.492 16.6927 136.354 16.1667 136.281 15.5938C136.198 14.9271 136.133 14.2161 136.086 13.4609C136.039 12.7057 136.01 12.1146 136 11.6875V8.9375C135.99 7.42708 136.083 5.91667 136.281 4.40625C136.354 3.83333 136.484 3.3151 136.672 2.85156C136.859 2.38802 137.026 2.06771 137.172 1.89062L137.391 1.625C137.536 1.46875 137.687 1.33073 137.844 1.21094C138 1.09115 138.161 0.989583 138.328 0.90625C138.495 0.822917 138.641 0.755208 138.766 0.703125C138.891 0.651042 139.039 0.609375 139.211 0.578125C139.383 0.546875 139.505 0.523438 139.578 0.507812C139.651 0.492188 139.771 0.476562 139.937 0.460938C140.104 0.445312 140.193 0.4375 140.203 0.4375C142.818 0.25 146.083 0.15625 150 0.15625Z" fill="#333333"/>
</g>
<defs>
<clipPath id="clip0">
<rect width="28" height="20" fill="white" transform="translate(136)"/>
</clipPath>
</defs>
</svg>
